REM GENRE Deep House
REM DATE 1999
REM COMMENT "DCue v1.2dev"
PERFORMER "The Persuader"
TITLE "Stockholm"
FILE "r1.wav" WAVE
	TRACK 01 AUDIO
		TITLE "Östermalm"
		PERFORMER "The Persuader"
		INDEX 01 00:00:00
	TRACK 02 AUDIO
		TITLE "Vasastaden"
		PERFORMER "The Persuader"
		INDEX 01 04:45:00
	TRACK 03 AUDIO
		TITLE "Kungsholmen"
		PERFORMER "The Persuader"
		INDEX 01 10:56:00
	TRACK 04 AUDIO
		TITLE "Södermalm"
		PERFORMER "The Persuader"
		INDEX 01 13:45:00
	TRACK 05 AUDIO
		TITLE "Norrmalm"
		PERFORMER "The Persuader"
		INDEX 01 19:23:00
	TRACK 06 AUDIO
		TITLE "Gamla Stan"
		PERFORMER "The Persuader"
		INDEX 01 24:15:00
